HIERARCHY
ROOT hip
{
  OFFSET 0 0 0
  CHANNELS 6 Xposition Yposition Zposition Zrotation Yrotation Xrotation
  JOINT abdomen
  {
    OFFSET 0 20.6881 -0.73152
    CHANNELS 3 Zrotation Xrotation Yrotation
    JOINT chest
    {
      OFFSET 0 11.7043 -0.48768
      CHANNELS 3 Zrotation Xrotation Yrotation
      JOINT neck
      {
        OFFSET 0 22.1894 -2.19456
        CHANNELS 3 Zrotation Xrotation Yrotation
        JOINT head
        {
          OFFSET -0.24384 7.07133 1.2192
          CHANNELS 3 Zrotation Xrotation Yrotation
          JOINT leftEye
          {
            OFFSET 4.14528 8.04674 8.04672
            CHANNELS 3 Zrotation Xrotation Yrotation
            End Site
            {
              OFFSET 1 0 0
            }
          }
          JOINT rightEye
          {
            OFFSET -3.6576 8.04674 8.04672
            CHANNELS 3 Zrotation Xrotation Yrotation
            End Site
            {
              OFFSET 1 0 0
            }
          }
        }
      }
      JOINT rCollar
      {
        OFFSET -2.68224 19.2634 -4.8768
        CHANNELS 3 Zrotation Xrotation Yrotation
        JOINT rShldr
        {
          OFFSET -8.77824 -1.95073 1.46304
          CHANNELS 3 Zrotation Xrotation Yrotation
          JOINT rForeArm
          {
            OFFSET -28.1742 -1.7115 0.48768
            CHANNELS 3 Zrotation Xrotation Yrotation
            JOINT rHand
            {
              OFFSET -22.5879 0.773209 7.07136
              CHANNELS 3 Zrotation Xrotation Yrotation
              JOINT rThumb1
              {
                OFFSET -1.2192 -0.487915 3.41376
                CHANNELS 3 Zrotation Xrotation Yrotation
                JOINT rThumb2
                {
                  OFFSET -3.37035 -0.52449 3.41376
                  CHANNELS 3 Zrotation Xrotation Yrotation
                  End Site
                  {
                    OFFSET -1.78271 -1.18214 1.43049
                  }
                }
              }
              JOINT rIndex1
              {
                OFFSET -7.75947 0.938293 5.60832
                CHANNELS 3 Zrotation Xrotation Yrotation
                JOINT rIndex2
                {
                  OFFSET -2.54057 -0.884171 1.56538
                  CHANNELS 3 Zrotation Xrotation Yrotation
                  End Site
                  {
                    OFFSET -1.62519 -0.234802 1.16502
                  }
                }
              }
              JOINT rMid1
              {
                OFFSET -8.24714 1.18213 3.41376
                CHANNELS 3 Zrotation Xrotation Yrotation
                JOINT rMid2
                {
                  OFFSET -3.10165 -0.590103 1.0647
                  CHANNELS 3 Zrotation Xrotation Yrotation
                  End Site
                  {
                    OFFSET -2.48547 -0.328903 0.83742
                  }
                }
              }
              JOINT rRing1
              {
                OFFSET -8.82822 0.546677 1.51678
                CHANNELS 3 Zrotation Xrotation Yrotation
                JOINT rRing2
                {
                  OFFSET -2.60934 -0.819778 -0.0198488
                  CHANNELS 3 Zrotation Xrotation Yrotation
                  End Site
                  {
                    OFFSET -2.33842 -0.294052 0.168128
                  }
                }
              }
              JOINT rPinky1
              {
                OFFSET -8.27202 -0.0477905 -0.4584
                CHANNELS 3 Zrotation Xrotation Yrotation
                JOINT rPinky2
                {
                  OFFSET -1.82734 -0.647385 -0.700984
                  CHANNELS 3 Zrotation Xrotation Yrotation
                  End Site
                  {
                    OFFSET -1.69225 -0.51767 -0.607171
                  }
                }
              }
            }
          }
        }
      }
      JOINT lCollar
      {
        OFFSET 2.68224 19.2634 -4.8768
        CHANNELS 3 Zrotation Xrotation Yrotation
        JOINT lShldr
        {
          OFFSET 8.77824 -1.95073 1.46304
          CHANNELS 3 Zrotation Xrotation Yrotation
          JOINT lForeArm
          {
            OFFSET 28.1742 -1.7115 0.48768
            CHANNELS 3 Zrotation Xrotation Yrotation
            JOINT lHand
            {
              OFFSET 22.5879 0.773209 7.07136
              CHANNELS 3 Zrotation Xrotation Yrotation
              JOINT lThumb1
              {
                OFFSET 1.2192 -0.487915 3.41376
                CHANNELS 3 Zrotation Xrotation Yrotation
                JOINT lThumb2
                {
                  OFFSET 3.37035 -0.52449 3.41376
                  CHANNELS 3 Zrotation Xrotation Yrotation
                  End Site
                  {
                    OFFSET 1.78271 -1.18214 1.43049
                  }
                }
              }
              JOINT lIndex1
              {
                OFFSET 7.75947 0.938293 5.60832
                CHANNELS 3 Zrotation Xrotation Yrotation
                JOINT lIndex2
                {
                  OFFSET 2.54057 -0.884171 1.56538
                  CHANNELS 3 Zrotation Xrotation Yrotation
                  End Site
                  {
                    OFFSET 1.62519 -0.234802 1.16502
                  }
                }
              }
              JOINT lMid1
              {
                OFFSET 8.24714 1.18213 3.41376
                CHANNELS 3 Zrotation Xrotation Yrotation
                JOINT lMid2
                {
                  OFFSET 3.10165 -0.590103 1.0647
                  CHANNELS 3 Zrotation Xrotation Yrotation
                  End Site
                  {
                    OFFSET 2.48547 -0.328903 0.83742
                  }
                }
              }
              JOINT lRing1
              {
                OFFSET 8.82822 0.546677 1.51678
                CHANNELS 3 Zrotation Xrotation Yrotation
                JOINT lRing2
                {
                  OFFSET 2.60934 -0.819778 -0.0198488
                  CHANNELS 3 Zrotation Xrotation Yrotation
                  End Site
                  {
                    OFFSET 2.33842 -0.294052 0.168128
                  }
                }
              }
              JOINT lPinky1
              {
                OFFSET 8.27202 -0.0477905 -0.4584
                CHANNELS 3 Zrotation Xrotation Yrotation
                JOINT lPinky2
                {
                  OFFSET 1.82734 -0.647385 -0.700984
                  CHANNELS 3 Zrotation Xrotation Yrotation
                  End Site
                  {
                    OFFSET 1.69225 -0.51767 -0.607171
                  }
                }
              }
            }
          }
        }
      }
    }
  }
  JOINT rButtock
  {
    OFFSET -8.77824 4.35084 1.2192
    CHANNELS 3 Zrotation Xrotation Yrotation
    JOINT rThigh
    {
      OFFSET 0 -1.70687 -2.19456
      CHANNELS 3 Zrotation Xrotation Yrotation
      JOINT rShin
      {
        OFFSET 0 -36.8199 0.73152
        CHANNELS 3 Zrotation Xrotation Yrotation
        JOINT rFoot
        {
          OFFSET 0.73152 -45.1104 -5.12064
          CHANNELS 3 Zrotation Xrotation Yrotation
          End Site
          {
            OFFSET -1.1221 -3.69964 12.103
          }
        }
      }
    }
  }
  JOINT lButtock
  {
    OFFSET 8.77824 4.35084 1.2192
    CHANNELS 3 Zrotation Xrotation Yrotation
    JOINT lThigh
    {
      OFFSET 0 -1.70687 -2.19456
      CHANNELS 3 Zrotation Xrotation Yrotation
      JOINT lShin
      {
        OFFSET 0 -36.8199 0.73152
        CHANNELS 3 Zrotation Xrotation Yrotation
        JOINT lFoot
        {
          OFFSET -0.73152 -45.1104 -5.12064
          CHANNELS 3 Zrotation Xrotation Yrotation
          End Site
          {
            OFFSET 1.1221 -3.69964 12.103
          }
        }
      }
    }
  }
}
MOTION
Frames:	4
Frame Time:	0.03333
-0.4722665995359421 -1.7016446217894554 -0.04760380834341049 -156.64605712890625 69.58114624023438 -141.09268188476562 -0.4843409061431885 18.428630828857422 17.86334991455078 -5.563644886016846 -14.900136947631836 4.614680767059326 2.0358197689056396 13.538076400756836 15.77863597869873 -0.6868157982826233 -22.9553279876709 30.05139923095703 0.545651912689209 0.902752697467804 -0.8026045560836792 -0.45350703597068787 -0.29975658655166626 -0.4801568388938904 0.15827259421348572 0.17017778754234314 -0.08299681544303894 -11.12639331817627 50.159061431884766 75.3833236694336 -27.322439193725586 -42.71050262451172 89.06875610351562 0.029778819531202316 8.223138809204102 0.9945299029350281 0.135150745511055 -0.4382163882255554 0.44693392515182495 -0.15129446983337402 0.0644875317811966 0.26607537269592285 -0.015428129583597183 0.8474606275558472 0.4853695333003998 6.887625694274902 6.631579875946045 1.493505597114563 0.3237770199775696 -0.39334943890571594 0.4098242521286011 2.6942901611328125 0.7645796537399292 -0.46643540263175964 0.33448901772499084 -0.5013419389724731 0.12012961506843567 9.879453659057617 0.8433586359024048 0.3102527856826782 -0.1104193925857544 -0.13600169122219086 0.13938786089420319 1.8986821174621582 -0.19901792705059052 0.16136153042316437 -0.2822623550891876 -0.2903737723827362 -1.2444844245910645 -54.999855041503906 4.54392671585083 -26.503841400146484 25.742610931396484 -47.26846694946289 -98.0333023071289 1.3523311614990234 -35.24650192260742 4.635063171386719 0.8862271308898926 0.43106019496917725 0.34141111373901367 -0.9124598503112793 0.6830921173095703 -0.4670886993408203 0.21467816829681396 0.45543748140335083 -0.28313344717025757 -8.030567169189453 5.9746809005737305 -0.24344730377197266 -0.32160109281539917 -0.4166152775287628 0.483749657869339 -3.0666351318359375 0.8005105257034302 0.09215962141752243 0.008555499836802483 -0.33031877875328064 0.09910451620817184 -10.37253475189209 0.657600462436676 -0.006793672684580088 0.023036101832985878 -0.48229488730430603 0.009490329772233963 -2.6056268215179443 -1.4165997505187988 0.02629648894071579 -0.7654802799224854 -0.1833772361278534 0.34418168663978577 -76.10105895996094 -46.44242858886719 -60.77183532714844 -174.31707763671875 74.54931640625 176.49258422851562 -4.478976249694824 -21.649972915649414 -10.707569122314453 -0.05337546020746231 0.16959591209888458 0.12903611361980438 93.49513244628906 -54.65750503540039 73.33673095703125 168.32208251953125 82.0807113647461 -168.51434326171875 -3.044196844100952 -23.667875289916992 -2.780707359313965
-0.46379994601011276 -1.7528707161545753 -0.024345237761735916 -158.82208251953125 73.00032043457031 -142.9705810546875 -0.4446897506713867 18.29600715637207 17.236343383789062 -4.674160003662109 -14.683238983154297 4.557411193847656 1.3497473001480103 13.792152404785156 14.407904624938965 0.13130491971969604 -22.950345993041992 28.13489532470703 0.23580080270767212 0.9867672920227051 -0.7136437296867371 -0.37939876317977905 -0.22936320304870605 -0.33026188611984253 0.025023624300956726 0.22600208222866058 0.06922045350074768 -6.1685309410095215 51.246578216552734 69.85332489013672 -27.275789260864258 -42.15995407104492 88.18610382080078 0.014141986146569252 5.557908058166504 1.0017461776733398 0.1561913639307022 -0.5606642365455627 0.5547252893447876 0.09782503545284271 0.1908983439207077 0.5467868447303772 0.04074496030807495 0.7527962923049927 0.6765346527099609 7.066488265991211 6.141339302062988 1.6388773918151855 0.30264633893966675 -0.292849063873291 0.6405239105224609 2.4563958644866943 0.645001232624054 -0.6374773979187012 0.6836269497871399 -0.5701542496681213 -0.10785049200057983 10.045080184936523 1.0252599716186523 0.45119208097457886 0.42695945501327515 0.16151386499404907 0.14171525835990906 2.059006452560425 -0.06047923490405083 0.08620993047952652 0.01271768193691969 0.17267337441444397 -1.1404249668121338 -54.060546875 6.936762809753418 -27.836246490478516 26.05068588256836 -47.213905334472656 -97.26494598388672 1.5505980253219604 -34.289249420166016 4.4306440353393555 1.057404637336731 0.482377827167511 0.27359089255332947 -0.5531379580497742 0.5495110154151917 -0.4415450096130371 0.40955230593681335 0.7578641772270203 -0.15883906185626984 -7.851587295532227 5.762096405029297 -0.47241806983947754 -0.16603153944015503 -0.41210639476776123 0.3642914593219757 -3.322136163711548 0.5049335956573486 0.05795091763138771 -0.03122202306985855 -0.8150897026062012 -0.09719902276992798 -10.905427932739258 0.726108968257904 0.3818334937095642 0.28558096289634705 -0.4434890151023865 0.06307559460401535 -2.2602109909057617 -1.5900434255599976 0.3560257852077484 -0.955170214176178 -0.5101897120475769 0.151260107755661 -71.765380859375 -46.28188705444336 -57.593997955322266 -173.10743713378906 76.76375579833984 175.63438415527344 -4.273875713348389 -19.578519821166992 -10.966753005981445 -0.17327339947223663 0.1915559321641922 0.2413708120584488 90.50582885742188 -54.9393196105957 71.89421844482422 167.41111755371094 82.84455871582031 -167.32833862304688 -2.2591285705566406 -22.607154846191406 -1.8295164108276367
-0.4627881571650505 -1.6879204660654068 -0.004436168819665909 -157.69737243652344 73.90157318115234 -143.22564697265625 -0.1783744990825653 18.118019104003906 18.182113647460938 -5.520730495452881 -14.210161209106445 4.3155517578125 1.3656648397445679 13.95386791229248 13.745988845825195 0.20645858347415924 -23.14022445678711 27.864234924316406 0.6694297790527344 0.7024308443069458 -0.3430730104446411 -0.7075388431549072 -0.06655991077423096 -0.48167282342910767 0.004295846447348595 0.3188568651676178 -0.29091259837150574 -8.424019813537598 51.78282165527344 72.29116821289062 -26.563655853271484 -42.454368591308594 89.24027252197266 0.04501950740814209 7.883749008178711 1.1225193738937378 0.30508744716644287 -0.4763406813144684 0.2584453225135803 0.040901634842157364 0.40878310799598694 0.7303317189216614 -0.28012409806251526 0.5082263946533203 0.3048000633716583 7.774140357971191 6.10405969619751 1.1032238006591797 0.5867254137992859 -0.3241823613643646 0.42834383249282837 2.2570960521698 0.5803371071815491 -0.008418514393270016 0.19497917592525482 -0.03343003988265991 -0.17199711501598358 10.379867553710938 1.0034178495407104 0.12771658599376678 0.10856688022613525 -0.11249219626188278 0.8510106205940247 1.9596248865127563 -0.1069934219121933 -0.1274317502975464 0.1472230851650238 -0.209818497300148 -0.5628067851066589 -55.42204284667969 6.024771213531494 -24.740196228027344 26.164548873901367 -46.714263916015625 -96.38015747070312 1.810843586921692 -36.04243469238281 4.8255085945129395 0.6623476147651672 0.49772679805755615 0.3493231236934662 -0.7761202454566956 0.6071536540985107 -0.5759166479110718 -0.21576657891273499 0.6797295212745667 0.2728915512561798 -7.950021266937256 5.487969398498535 -0.46676331758499146 -0.06502889841794968 -0.5816854238510132 0.7100961804389954 -3.404973030090332 0.6492472887039185 -0.09381194412708282 0.32003703713417053 -0.49799472093582153 0.23950164020061493 -10.17769718170166 0.5212765336036682 -0.23369890451431274 0.04129470884799957 -0.13984186947345734 0.4189451336860657 -2.9046361446380615 -0.7280339598655701 0.25519558787345886 -0.8572924733161926 -0.3833601772785187 -0.09877967834472656 -72.74591064453125 -45.44683074951172 -57.91019821166992 -172.4070281982422 75.04403686523438 174.7554931640625 -4.089265823364258 -21.58376693725586 -10.267980575561523 -0.4215875566005707 0.3346949517726898 0.32687824964523315 96.60921478271484 -54.87591552734375 78.7030258178711 170.87879943847656 78.79667663574219 -171.01339721679688 -2.5720303058624268 -24.996347427368164 -2.5546023845672607
-0.47051720321178436 -1.6470611095428467 0.0027216970920562744 -160.0363006591797 75.32898712158203 -142.862548828125 -0.2623559236526489 18.126564025878906 18.21933937072754 -5.611225605010986 -14.10821533203125 4.396899223327637 1.5992399454116821 13.94900894165039 13.636329650878906 0.2834951877593994 -22.625411987304688 27.441560745239258 0.8575013875961304 0.704939067363739 -0.7367967367172241 -0.6215723752975464 0.22657227516174316 -0.6432844996452332 0.16997334361076355 0.3178391456604004 -0.08883427828550339 -6.809187889099121 52.589744567871094 70.55966186523438 -26.27232551574707 -42.756500244140625 89.60530090332031 0.02337871678173542 9.56884479522705 0.787969172000885 0.06562992930412292 -0.6350386142730713 0.24558906257152557 -0.3386358916759491 0.47479864954948425 0.28799134492874146 -0.2074575573205948 -0.08060930669307709 0.19396056234836578 7.503222942352295 6.07305383682251 1.0607901811599731 0.5829423069953918 -0.3541715741157532 0.3852284252643585 2.330501079559326 0.5806442499160767 -0.2571263611316681 -0.12897172570228577 0.025142431259155273 0.15396589040756226 10.149967193603516 1.1388665437698364 0.21427440643310547 -0.19586758315563202 -0.14531157910823822 0.5552508234977722 1.693800926208496 -0.28388336300849915 -0.5602800250053406 0.020709123462438583 -0.45275309681892395 -0.6956222057342529 -56.64653778076172 6.642888069152832 -21.570873260498047 26.293222427368164 -45.919456481933594 -95.12060546875 1.4250940084457397 -36.81167221069336 4.954370498657227 0.4960086941719055 0.7483927011489868 0.16102635860443115 -0.7718077898025513 0.7097647786140442 -0.746342122554779 -0.2820189297199249 0.37448927760124207 0.48055750131607056 -8.203778266906738 5.988905906677246 -0.7432584166526794 -0.07135698199272156 -0.44936755299568176 0.1940988302230835 -3.2472691535949707 0.8252204656600952 -0.12273795902729034 0.23573806881904602 0.027317002415657043 0.42479845881462097 -9.801345825195312 0.5547002553939819 -0.6514704823493958 0.15763145685195923 0.007221742533147335 0.5131828784942627 -2.876516580581665 -0.31589096784591675 0.46735528111457825 -0.757032036781311 -0.041261687874794006 -0.05886654183268547 -73.4945068359375 -45.31694793701172 -58.620025634765625 -173.6161651611328 74.57583618164062 175.72645568847656 -3.712322473526001 -22.569387435913086 -9.119854927062988 -0.5717765688896179 0.44768595695495605 0.5023660659790039 97.16140747070312 -55.095272064208984 78.44515991210938 172.6575927734375 76.89859008789062 -173.48629760742188 -3.5840680599212646 -26.62668800354004 -4.274631500244141
